<mxfile host="www.draw.io" modified="2019-12-14T06:43:43.755Z" agent="Mozilla/5.0 (X11; Linux x86_64) AppleWebKit/537.36 (KHTML, like Gecko) Chrome/68.0.3440.75 Safari/537.36" etag="URZ0F-yIkIGPxyFeyH_7" version="12.4.1" type="github" pages="1">
  <diagram id="Hu7lbrIVspSncEt7lW_I" name="Page-1">
    <mxGraphModel dx="782" dy="452" grid="1" gridSize="10" guides="1" tooltips="1" connect="1" arrows="1" fold="1" page="1" pageScale="1" pageWidth="827" pageHeight="1169" math="0" shadow="0">
      <root>
        <mxCell id="0"/>
        <mxCell id="1" parent="0"/>
        <mxCell id="p-h15RsdW0nm763Yp3lO-19" value="" style="html=1;shadow=0;dashed=0;align=center;verticalAlign=middle;shape=mxgraph.arrows2.jumpInArrow;dy=15;dx=38;arrowHead=48;rotation=5;flipV=1;flipH=1;" vertex="1" parent="1">
          <mxGeometry x="290" y="522.5" width="185" height="135" as="geometry"/>
        </mxCell>
        <mxCell id="p-h15RsdW0nm763Yp3lO-1" value="股票市场" style="rounded=1;whiteSpace=wrap;html=1;" vertex="1" parent="1">
          <mxGeometry x="70" y="200" width="90" height="40" as="geometry"/>
        </mxCell>
        <mxCell id="p-h15RsdW0nm763Yp3lO-2" value="流通市场" style="rounded=1;whiteSpace=wrap;html=1;" vertex="1" parent="1">
          <mxGeometry x="210" y="280" width="90" height="40" as="geometry"/>
        </mxCell>
        <mxCell id="p-h15RsdW0nm763Yp3lO-3" value="发行市场" style="rounded=1;whiteSpace=wrap;html=1;" vertex="1" parent="1">
          <mxGeometry x="210" y="130" width="90" height="40" as="geometry"/>
        </mxCell>
        <mxCell id="p-h15RsdW0nm763Yp3lO-4" value="二级市场" style="rounded=1;whiteSpace=wrap;html=1;" vertex="1" parent="1">
          <mxGeometry x="350" y="140" width="90" height="40" as="geometry"/>
        </mxCell>
        <mxCell id="p-h15RsdW0nm763Yp3lO-5" value="三级市场" style="rounded=1;whiteSpace=wrap;html=1;" vertex="1" parent="1">
          <mxGeometry x="350" y="200" width="90" height="40" as="geometry"/>
        </mxCell>
        <mxCell id="p-h15RsdW0nm763Yp3lO-8" value="" style="edgeStyle=orthogonalEdgeStyle;rounded=0;orthogonalLoop=1;jettySize=auto;html=1;" edge="1" parent="1" source="p-h15RsdW0nm763Yp3lO-6" target="p-h15RsdW0nm763Yp3lO-7">
          <mxGeometry relative="1" as="geometry"/>
        </mxCell>
        <object label="一级市场" id="p-h15RsdW0nm763Yp3lO-6">
          <mxCell style="rounded=1;whiteSpace=wrap;html=1;" vertex="1" parent="1">
            <mxGeometry x="350" y="90" width="90" height="40" as="geometry"/>
          </mxCell>
        </object>
        <object label="&lt;span style=&quot;color: rgb(51 , 51 , 51) ; font-family: &amp;#34;arial&amp;#34; , , sans-serif ; font-size: 14px ; text-indent: 28px ; background-color: rgb(255 , 255 , 255)&quot;&gt;该市场的主要经营者是投资银行、经纪人和证券自营商&lt;br&gt;(在我国这三种业务统一于证券公司)&lt;/span&gt;" id="p-h15RsdW0nm763Yp3lO-7">
          <mxCell style="rounded=1;whiteSpace=wrap;html=1;" vertex="1" parent="1">
            <mxGeometry x="487" y="75" width="340" height="70" as="geometry"/>
          </mxCell>
        </object>
        <mxCell id="p-h15RsdW0nm763Yp3lO-9" value="" style="edgeStyle=elbowEdgeStyle;elbow=horizontal;endArrow=classic;html=1;entryX=0;entryY=0.5;entryDx=0;entryDy=0;exitX=1;exitY=0.5;exitDx=0;exitDy=0;" edge="1" parent="1" source="p-h15RsdW0nm763Yp3lO-1" target="p-h15RsdW0nm763Yp3lO-3">
          <mxGeometry width="50" height="50" relative="1" as="geometry">
            <mxPoint x="160" y="180" as="sourcePoint"/>
            <mxPoint x="210" y="130" as="targetPoint"/>
          </mxGeometry>
        </mxCell>
        <mxCell id="p-h15RsdW0nm763Yp3lO-10" value="" style="edgeStyle=elbowEdgeStyle;elbow=horizontal;endArrow=classic;html=1;entryX=0;entryY=0.5;entryDx=0;entryDy=0;exitX=1;exitY=0.5;exitDx=0;exitDy=0;" edge="1" parent="1" source="p-h15RsdW0nm763Yp3lO-1" target="p-h15RsdW0nm763Yp3lO-2">
          <mxGeometry width="50" height="50" relative="1" as="geometry">
            <mxPoint x="170" y="230" as="sourcePoint"/>
            <mxPoint x="220" y="160" as="targetPoint"/>
          </mxGeometry>
        </mxCell>
        <mxCell id="p-h15RsdW0nm763Yp3lO-11" value="" style="edgeStyle=elbowEdgeStyle;elbow=horizontal;endArrow=classic;html=1;entryX=0;entryY=0.5;entryDx=0;entryDy=0;exitX=1;exitY=0.5;exitDx=0;exitDy=0;" edge="1" parent="1" source="p-h15RsdW0nm763Yp3lO-3" target="p-h15RsdW0nm763Yp3lO-6">
          <mxGeometry width="50" height="50" relative="1" as="geometry">
            <mxPoint x="170" y="230" as="sourcePoint"/>
            <mxPoint x="220" y="310" as="targetPoint"/>
          </mxGeometry>
        </mxCell>
        <mxCell id="p-h15RsdW0nm763Yp3lO-12" value="" style="edgeStyle=elbowEdgeStyle;elbow=horizontal;endArrow=classic;html=1;entryX=0;entryY=0.5;entryDx=0;entryDy=0;exitX=1;exitY=0.5;exitDx=0;exitDy=0;" edge="1" parent="1" source="p-h15RsdW0nm763Yp3lO-3" target="p-h15RsdW0nm763Yp3lO-5">
          <mxGeometry width="50" height="50" relative="1" as="geometry">
            <mxPoint x="310" y="160" as="sourcePoint"/>
            <mxPoint x="360" y="120" as="targetPoint"/>
          </mxGeometry>
        </mxCell>
        <mxCell id="p-h15RsdW0nm763Yp3lO-13" value="" style="edgeStyle=elbowEdgeStyle;elbow=horizontal;endArrow=classic;html=1;entryX=0;entryY=0.5;entryDx=0;entryDy=0;exitX=1;exitY=0.5;exitDx=0;exitDy=0;" edge="1" parent="1" source="p-h15RsdW0nm763Yp3lO-3" target="p-h15RsdW0nm763Yp3lO-4">
          <mxGeometry width="50" height="50" relative="1" as="geometry">
            <mxPoint x="320" y="170" as="sourcePoint"/>
            <mxPoint x="370" y="130" as="targetPoint"/>
          </mxGeometry>
        </mxCell>
        <mxCell id="p-h15RsdW0nm763Yp3lO-15" value="&lt;font color=&quot;#ba0000&quot; face=&quot;monospace&quot;&gt;&lt;span style=&quot;font-size: 0px ; background-color: rgb(248 , 249 , 250)&quot;&gt;c&lt;/span&gt;&lt;/font&gt;&lt;span style=&quot;color: rgba(0 , 0 , 0 , 0) ; font-family: monospace ; font-size: 0px ; background-color: rgb(248 , 249 , 250)&quot;&gt;%3CmxGraphModel%3E%3Croot%3E%3CmxCell%20id%3D%220%22%2F%3E%3CmxCell%20id%3D%221%22%20parent%3D%220%22%2F%3E%3CmxCell%20id%3D%222%22%20value%3D%22%22%20style%3D%22html%3D1%3Bshadow%3D0%3Bdashed%3D0%3Balign%3Dcenter%3BverticalAlign%3Dmiddle%3Bshape%3Dmxgraph.arrows2.jumpInArrow%3Bdy%3D15%3Bdx%3D38%3BarrowHead%3D48%3Brotation%3D5%3B%22%20vertex%3D%221%22%20parent%3D%221%22%3E%3CmxGeometry%20x%3D%22560%22%20y%3D%22354%22%20width%3D%22200%22%20height%3D%22135%22%20as%3D%22geometry%22%2F%3E%3C%2FmxCell%3E%3C%2Froot%3E%3C%2FmxGraphModel%3E&lt;/span&gt;&lt;span style=&quot;color: rgba(0 , 0 , 0 , 0) ; font-family: monospace ; font-size: 0px ; background-color: rgb(248 , 249 , 250)&quot;&gt;%3CmxGraphModel%3E%3Croot%3E%3CmxCell%20id%3D%220%22%2F%3E%3CmxCell%20id%3D%221%22%20parent%3D%220%22%2F%3E%3CmxCell%20id%3D%222%22%20value%3D%22%22%20style%3D%22html%3D1%3Bshadow%3D0%3Bdashed%3D0%3Balign%3Dcenter%3BverticalAlign%3Dmiddle%3Bshape%3Dmxgraph.arrows2.jumpInArrow%3Bdy%3D15%3Bdx%3D38%3BarrowHead%3D48%3Brotation%3D5%3B%22%20vertex%3D%221%22%20parent%3D%221%22%3E%3CmxGeometry%20x%3D%22560%22%20y%3D%22354%22%20width%3D%22200%22%20height%3D%22135%22%20as%3D%22geometry%22%2F%3E%3C%2FmxCell%3E%3C%2Froot%3E%3C%2FmxGraphModel%3E&lt;/span&gt;&lt;span style=&quot;color: rgba(0 , 0 , 0 , 0) ; font-family: monospace ; font-size: 0px ; background-color: rgb(248 , 249 , 250)&quot;&gt;%3CmxGraphModel%3E%3Croot%3E%3CmxCell%20id%3D%220%22%2F%3E%3CmxCell%20id%3D%221%22%20parent%3D%220%22%2F%3E%3CmxCell%20id%3D%222%22%20value%3D%22%22%20style%3D%22html%3D1%3Bshadow%3D0%3Bdashed%3D0%3Balign%3Dcenter%3BverticalAlign%3Dmiddle%3Bshape%3Dmxgraph.arrows2.jumpInArrow%3Bdy%3D15%3Bdx%3D38%3BarrowHead%3D48%3Brotation%3D5%3B%22%20vertex%3D%221%22%20parent%3D%221%22%3E%3CmxGeometry%20x%3D%22560%22%20y%3D%22354%22%20width%3D%22200%22%20height%3D%22135%22%20as%3D%22geometry%22%2F%3E%3C%2FmxCell%3E%3C%2Froot%3E%3C%2FmxGraphModel%3E&lt;/span&gt;&lt;span style=&quot;color: rgba(0 , 0 , 0 , 0) ; font-family: monospace ; font-size: 0px ; background-color: rgb(248 , 249 , 250)&quot;&gt;%3CmxGraphModel%3E%3Croot%3E%3CmxCell%20id%3D%220%22%2F%3E%3CmxCell%20id%3D%221%22%20parent%3D%220%22%2F%3E%3CmxCell%20id%3D%222%22%20value%3D%22%22%20style%3D%22html%3D1%3Bshadow%3D0%3Bdashed%3D0%3Balign%3Dcenter%3BverticalAlign%3Dmiddle%3Bshape%3Dmxgraph.arrows2.jumpInArrow%3Bdy%3D15%3Bdx%3D38%3BarrowHead%3D48%3Brotation%3D5%3B%22%20vertex%3D%221%22%20parent%3D%221%22%3E%3CmxGeometry%20x%3D%22560%22%20y%3D%22354%22%20width%3D%22200%22%20height%3D%22135%22%20as%3D%22geometry%22%2F%3E%3C%2FmxCell%3E%3C%2Froot%3E%3C%2FmxGraphModel%3E&lt;/span&gt;&lt;span style=&quot;color: rgba(0 , 0 , 0 , 0) ; font-family: monospace ; font-size: 0px ; background-color: rgb(248 , 249 , 250)&quot;&gt;%3CmxGraphModel%3E%3Croot%3E%3CmxCell%20id%3D%220%22%2F%3E%3CmxCell%20id%3D%221%22%20parent%3D%220%22%2F%3E%3CmxCell%20id%3D%222%22%20value%3D%22%22%20style%3D%22html%3D1%3Bshadow%3D0%3Bdashed%3D0%3Balign%3Dcenter%3BverticalAlign%3Dmiddle%3Bshape%3Dmxgraph.arrows2.jumpInArrow%3Bdy%3D15%3Bdx%3D38%3BarrowHead%3D48%3Brotation%3D5%3B%22%20vertex%3D%221%22%20parent%3D%221%22%3E%3CmxGeometry%20x%3D%22560%22%20y%3D%22354%22%20width%3D%22200%22%20height%3D%22135%22%20as%3D%22geometry%22%2F%3E%3C%2FmxCell%3E%3C%2Froot%3E%3C%2FmxGraphModel%3E&lt;/span&gt;&lt;span style=&quot;color: rgba(0 , 0 , 0 , 0) ; font-family: monospace ; font-size: 0px ; background-color: rgb(248 , 249 , 250)&quot;&gt;%3CmxGraphModel%3E%3Croot%3E%3CmxCell%20id%3D%220%22%2F%3E%3CmxCell%20id%3D%221%22%20parent%3D%220%22%2F%3E%3CmxCell%20id%3D%222%22%20value%3D%22%22%20style%3D%22html%3D1%3Bshadow%3D0%3Bdashed%3D0%3Balign%3Dcenter%3BverticalAlign%3Dmiddle%3Bshape%3Dmxgraph.arrows2.jumpInArrow%3Bdy%3D15%3Bdx%3D38%3BarrowHead%3D48%3Brotation%3D5%3B%22%20vertex%3D%221%22%20parent%3D%221%22%3E%3CmxGeometry%20x%3D%22560%22%20y%3D%22354%22%20width%3D%22200%22%20height%3D%22135%22%20as%3D%22geometry%22%2F%3E%3C%2FmxCell%3E%3C%2Froot%3E%3C%2FmxGraphModel%3E&lt;/span&gt;&lt;span style=&quot;color: rgba(0 , 0 , 0 , 0) ; font-family: monospace ; font-size: 0px ; background-color: rgb(248 , 249 , 250)&quot;&gt;%3CmxGraphModel%3E%3Croot%3E%3CmxCell%20id%3D%220%22%2F%3E%3CmxCell%20id%3D%221%22%20parent%3D%220%22%2F%3E%3CmxCell%20id%3D%222%22%20value%3D%22%22%20style%3D%22html%3D1%3Bshadow%3D0%3Bdashed%3D0%3Balign%3Dcenter%3BverticalAlign%3Dmiddle%3Bshape%3Dmxgraph.arrows2.jumpInArrow%3Bdy%3D15%3Bdx%3D38%3BarrowHead%3D48%3Brotation%3D5%3B%22%20vertex%3D%221%22%20parent%3D%221%22%3E%3CmxGeometry%20x%3D%22560%22%20y%3D%22354%22%20width%3D%22200%22%20height%3D%22135%22%20as%3D%22geometry%22%2F%3E%3C%2FmxCell%3E%3C%2Froot%3E%3C%2FmxGraphModel%3E&lt;/span&gt;" style="html=1;shadow=0;dashed=0;align=center;verticalAlign=middle;shape=mxgraph.arrows2.jumpInArrow;dy=15;dx=38;arrowHead=48;rotation=5;" vertex="1" parent="1">
          <mxGeometry x="570" y="884.5" width="200" height="135" as="geometry"/>
        </mxCell>
        <mxCell id="p-h15RsdW0nm763Yp3lO-16" value="" style="html=1;shadow=0;dashed=0;align=center;verticalAlign=middle;shape=mxgraph.arrows2.jumpInArrow;dy=15;dx=38;arrowHead=48;rotation=85;direction=north;flipV=0;flipH=1;" vertex="1" parent="1">
          <mxGeometry x="589" y="493" width="135" height="190" as="geometry"/>
        </mxCell>
        <mxCell id="p-h15RsdW0nm763Yp3lO-14" value="" style="ellipse;whiteSpace=wrap;html=1;" vertex="1" parent="1">
          <mxGeometry x="450" y="470" width="130" height="70" as="geometry"/>
        </mxCell>
        <mxCell id="p-h15RsdW0nm763Yp3lO-17" value="" style="rounded=0;whiteSpace=wrap;html=1;" vertex="1" parent="1">
          <mxGeometry x="767" y="354" width="120" height="60" as="geometry"/>
        </mxCell>
        <mxCell id="p-h15RsdW0nm763Yp3lO-18" value="" style="rounded=0;whiteSpace=wrap;html=1;" vertex="1" parent="1">
          <mxGeometry x="760" y="590" width="120" height="60" as="geometry"/>
        </mxCell>
        <mxCell id="p-h15RsdW0nm763Yp3lO-20" value="" style="html=1;shadow=0;dashed=0;align=center;verticalAlign=middle;shape=mxgraph.arrows2.jumpInArrow;dy=15;dx=38;arrowHead=48;rotation=60;flipV=0;flipH=1;direction=south;" vertex="1" parent="1">
          <mxGeometry x="320" y="381" width="126" height="160" as="geometry"/>
        </mxCell>
        <mxCell id="p-h15RsdW0nm763Yp3lO-25" value="" style="shape=offPageConnector;whiteSpace=wrap;html=1;direction=west;" vertex="1" parent="1">
          <mxGeometry x="383" y="863" width="187" height="277" as="geometry"/>
        </mxCell>
        <mxCell id="p-h15RsdW0nm763Yp3lO-28" value="&lt;span style=&quot;color: rgba(0 , 0 , 0 , 0) ; font-family: monospace ; font-size: 0px&quot;&gt;%3CmxGraphModel%3E%3Croot%3E%3CmxCell%20id%3D%220%22%2F%3E%3CmxCell%20id%3D%221%22%20parent%3D%220%22%2F%3E%3CmxCell%20id%3D%222%22%20value%3D%22%26lt%3Bspan%20style%3D%26quot%3Bcolor%3A%20rgba(0%20%2C%200%20%2C%200%20%2C%200)%20%3B%20font-family%3A%20monospace%20%3B%20font-size%3A%200px%20%3B%20background-color%3A%20rgb(248%20%2C%20249%20%2C%20250)%26quot%3B%26gt%3B%253CmxGraphModel%253E%253Croot%253E%253CmxCell%2520id%253D%25220%2522%252F%253E%253CmxCell%2520id%253D%25221%2522%2520parent%253D%25220%2522%252F%253E%253CmxCell%2520id%253D%25222%2522%2520value%253D%2522%2522%2520style%253D%2522endArrow%253Dnone%253Bhtml%253D1%253B%2522%2520edge%253D%25221%2522%2520parent%253D%25221%2522%253E%253CmxGeometry%2520width%253D%252250%2522%2520height%253D%252250%2522%2520relative%253D%25221%2522%2520as%253D%2522geometry%2522%253E%253CmxPoint%2520x%253D%2522330%2522%2520y%253D%2522880%2522%2520as%253D%2522sourcePoint%2522%252F%253E%253CmxPoint%2520x%253D%2522400%2522%2520y%253D%2522840%2522%2520as%253D%2522targetPoint%2522%252F%253E%253C%252FmxGeometry%253E%253C%252FmxCell%253E%253C%252Froot%253E%253C%252FmxGraphModel%253E%26lt%3B%2Fspan%26gt%3B%22%20style%3D%22endArrow%3Dnone%3Bhtml%3D1%3B%22%20edge%3D%221%22%20parent%3D%221%22%3E%3CmxGeometry%20width%3D%2250%22%20height%3D%2250%22%20relative%3D%221%22%20as%3D%22geometry%22%3E%3CmxPoint%20x%3D%22330%22%20y%3D%22880%22%20as%3D%22sourcePoint%22%2F%3E%3CmxPoint%20x%3D%22400%22%20y%3D%22840%22%20as%3D%22targetPoint%22%2F%3E%3C%2FmxGeometry%3E%3C%2FmxCell%3E%3C%2Froot%3E%3C%2FmxGraphModel%3E&lt;/span&gt;&lt;span style=&quot;color: rgba(0 , 0 , 0 , 0) ; font-family: monospace ; font-size: 0px ; white-space: nowrap&quot;&gt;%3CmxGraphModel%3E%3Croot%3E%3CmxCell%20id%3D%220%22%2F%3E%3CmxCell%20id%3D%221%22%20parent%3D%220%22%2F%3E%3CmxCell%20id%3D%222%22%20value%3D%22%26lt%3Bspan%20style%3D%26quot%3Bcolor%3A%20rgba(0%20%2C%200%20%2C%200%20%2C%200)%20%3B%20font-family%3A%20monospace%20%3B%20font-size%3A%200px%20%3B%20background-color%3A%20rgb(248%20%2C%20249%20%2C%20250)%26quot%3B%26gt%3B%253CmxGraphModel%253E%253Croot%253E%253CmxCell%2520id%253D%25220%2522%252F%253E%253CmxCell%2520id%253D%25221%2522%2520parent%253D%25220%2522%252F%253E%253CmxCell%2520id%253D%25222%2522%2520value%253D%2522%2522%2520style%253D%2522endArrow%253Dnone%253Bhtml%253D1%253B%2522%2520edge%253D%25221%2522%2520parent%253D%25221%2522%253E%253CmxGeometry%2520width%253D%252250%2522%2520height%253D%252250%2522%2520relative%253D%25221%2522%2520as%253D%2522geometry%2522%253E%253CmxPoint%2520x%253D%2522330%2522%2520y%253D%2522880%2522%2520as%253D%2522sourcePoint%2522%252F%253E%253CmxPoint%2520x%253D%2522400%2522%2520y%253D%2522840%2522%2520as%253D%2522targetPoint%2522%252F%253E%253C%252FmxGeometry%253E%253C%252FmxCell%253E%253C%252Froot%253E%253C%252FmxGraphModel%253E%26lt%3B%2Fspan%26gt%3B%22%20style%3D%22endArrow%3Dnone%3Bhtml%3D1%3B%22%20edge%3D%221%22%20parent%3D%221%22%3E%3CmxGeometry%20width%3D%2250%22%20height%3D%2250%22%20relative%3D%221%22%20as%3D%22geometry%22%3E%3CmxPoint%20x%3D%22330%22%20y%3D%22880%22%20as%3D%22sourcePoint%22%2F%3E%3CmxPoint%20x%3D%22400%22%20y%3D%22840%22%20as%3D%22targetPoint%22%2F%3E%3C%2FmxGeometry%3E%3C%2FmxCell%3E%3C%2Froot%3E%3C%2FmxGraphModel%3E&lt;/span&gt;" style="rounded=0;whiteSpace=wrap;html=1;" vertex="1" parent="1">
          <mxGeometry x="383" y="969" width="187" height="81" as="geometry"/>
        </mxCell>
        <mxCell id="p-h15RsdW0nm763Yp3lO-29" value="基础知识" style="text;html=1;align=center;verticalAlign=middle;resizable=0;points=[];;autosize=1;" vertex="1" parent="1">
          <mxGeometry x="440" y="991.5" width="60" height="20" as="geometry"/>
        </mxCell>
        <mxCell id="p-h15RsdW0nm763Yp3lO-30" value="重点知识" style="text;html=1;align=center;verticalAlign=middle;resizable=0;points=[];;autosize=1;" vertex="1" parent="1">
          <mxGeometry x="446" y="1080" width="60" height="20" as="geometry"/>
        </mxCell>
        <mxCell id="p-h15RsdW0nm763Yp3lO-31" value="认识小数" style="text;html=1;align=center;verticalAlign=middle;resizable=0;points=[];;autosize=1;" vertex="1" parent="1">
          <mxGeometry x="445" y="930" width="60" height="20" as="geometry"/>
        </mxCell>
        <mxCell id="p-h15RsdW0nm763Yp3lO-34" value="&lt;font color=&quot;#ba0000&quot; face=&quot;monospace&quot;&gt;&lt;span style=&quot;font-size: 0px ; background-color: rgb(248 , 249 , 250)&quot;&gt;c&lt;/span&gt;&lt;/font&gt;&lt;span style=&quot;color: rgba(0 , 0 , 0 , 0) ; font-family: monospace ; font-size: 0px ; background-color: rgb(248 , 249 , 250)&quot;&gt;%3CmxGraphModel%3E%3Croot%3E%3CmxCell%20id%3D%220%22%2F%3E%3CmxCell%20id%3D%221%22%20parent%3D%220%22%2F%3E%3CmxCell%20id%3D%222%22%20value%3D%22%22%20style%3D%22html%3D1%3Bshadow%3D0%3Bdashed%3D0%3Balign%3Dcenter%3BverticalAlign%3Dmiddle%3Bshape%3Dmxgraph.arrows2.jumpInArrow%3Bdy%3D15%3Bdx%3D38%3BarrowHead%3D48%3Brotation%3D5%3B%22%20vertex%3D%221%22%20parent%3D%221%22%3E%3CmxGeometry%20x%3D%22560%22%20y%3D%22354%22%20width%3D%22200%22%20height%3D%22135%22%20as%3D%22geometry%22%2F%3E%3C%2FmxCell%3E%3C%2Froot%3E%3C%2FmxGraphModel%3E&lt;/span&gt;&lt;span style=&quot;color: rgba(0 , 0 , 0 , 0) ; font-family: monospace ; font-size: 0px ; background-color: rgb(248 , 249 , 250)&quot;&gt;%3CmxGraphModel%3E%3Croot%3E%3CmxCell%20id%3D%220%22%2F%3E%3CmxCell%20id%3D%221%22%20parent%3D%220%22%2F%3E%3CmxCell%20id%3D%222%22%20value%3D%22%22%20style%3D%22html%3D1%3Bshadow%3D0%3Bdashed%3D0%3Balign%3Dcenter%3BverticalAlign%3Dmiddle%3Bshape%3Dmxgraph.arrows2.jumpInArrow%3Bdy%3D15%3Bdx%3D38%3BarrowHead%3D48%3Brotation%3D5%3B%22%20vertex%3D%221%22%20parent%3D%221%22%3E%3CmxGeometry%20x%3D%22560%22%20y%3D%22354%22%20width%3D%22200%22%20height%3D%22135%22%20as%3D%22geometry%22%2F%3E%3C%2FmxCell%3E%3C%2Froot%3E%3C%2FmxGraphModel%3E&lt;/span&gt;&lt;span style=&quot;color: rgba(0 , 0 , 0 , 0) ; font-family: monospace ; font-size: 0px ; background-color: rgb(248 , 249 , 250)&quot;&gt;%3CmxGraphModel%3E%3Croot%3E%3CmxCell%20id%3D%220%22%2F%3E%3CmxCell%20id%3D%221%22%20parent%3D%220%22%2F%3E%3CmxCell%20id%3D%222%22%20value%3D%22%22%20style%3D%22html%3D1%3Bshadow%3D0%3Bdashed%3D0%3Balign%3Dcenter%3BverticalAlign%3Dmiddle%3Bshape%3Dmxgraph.arrows2.jumpInArrow%3Bdy%3D15%3Bdx%3D38%3BarrowHead%3D48%3Brotation%3D5%3B%22%20vertex%3D%221%22%20parent%3D%221%22%3E%3CmxGeometry%20x%3D%22560%22%20y%3D%22354%22%20width%3D%22200%22%20height%3D%22135%22%20as%3D%22geometry%22%2F%3E%3C%2FmxCell%3E%3C%2Froot%3E%3C%2FmxGraphModel%3E&lt;/span&gt;&lt;span style=&quot;color: rgba(0 , 0 , 0 , 0) ; font-family: monospace ; font-size: 0px ; background-color: rgb(248 , 249 , 250)&quot;&gt;%3CmxGraphModel%3E%3Croot%3E%3CmxCell%20id%3D%220%22%2F%3E%3CmxCell%20id%3D%221%22%20parent%3D%220%22%2F%3E%3CmxCell%20id%3D%222%22%20value%3D%22%22%20style%3D%22html%3D1%3Bshadow%3D0%3Bdashed%3D0%3Balign%3Dcenter%3BverticalAlign%3Dmiddle%3Bshape%3Dmxgraph.arrows2.jumpInArrow%3Bdy%3D15%3Bdx%3D38%3BarrowHead%3D48%3Brotation%3D5%3B%22%20vertex%3D%221%22%20parent%3D%221%22%3E%3CmxGeometry%20x%3D%22560%22%20y%3D%22354%22%20width%3D%22200%22%20height%3D%22135%22%20as%3D%22geometry%22%2F%3E%3C%2FmxCell%3E%3C%2Froot%3E%3C%2FmxGraphModel%3E&lt;/span&gt;&lt;span style=&quot;color: rgba(0 , 0 , 0 , 0) ; font-family: monospace ; font-size: 0px ; background-color: rgb(248 , 249 , 250)&quot;&gt;%3CmxGraphModel%3E%3Croot%3E%3CmxCell%20id%3D%220%22%2F%3E%3CmxCell%20id%3D%221%22%20parent%3D%220%22%2F%3E%3CmxCell%20id%3D%222%22%20value%3D%22%22%20style%3D%22html%3D1%3Bshadow%3D0%3Bdashed%3D0%3Balign%3Dcenter%3BverticalAlign%3Dmiddle%3Bshape%3Dmxgraph.arrows2.jumpInArrow%3Bdy%3D15%3Bdx%3D38%3BarrowHead%3D48%3Brotation%3D5%3B%22%20vertex%3D%221%22%20parent%3D%221%22%3E%3CmxGeometry%20x%3D%22560%22%20y%3D%22354%22%20width%3D%22200%22%20height%3D%22135%22%20as%3D%22geometry%22%2F%3E%3C%2FmxCell%3E%3C%2Froot%3E%3C%2FmxGraphModel%3E&lt;/span&gt;&lt;span style=&quot;color: rgba(0 , 0 , 0 , 0) ; font-family: monospace ; font-size: 0px ; background-color: rgb(248 , 249 , 250)&quot;&gt;%3CmxGraphModel%3E%3Croot%3E%3CmxCell%20id%3D%220%22%2F%3E%3CmxCell%20id%3D%221%22%20parent%3D%220%22%2F%3E%3CmxCell%20id%3D%222%22%20value%3D%22%22%20style%3D%22html%3D1%3Bshadow%3D0%3Bdashed%3D0%3Balign%3Dcenter%3BverticalAlign%3Dmiddle%3Bshape%3Dmxgraph.arrows2.jumpInArrow%3Bdy%3D15%3Bdx%3D38%3BarrowHead%3D48%3Brotation%3D5%3B%22%20vertex%3D%221%22%20parent%3D%221%22%3E%3CmxGeometry%20x%3D%22560%22%20y%3D%22354%22%20width%3D%22200%22%20height%3D%22135%22%20as%3D%22geometry%22%2F%3E%3C%2FmxCell%3E%3C%2Froot%3E%3C%2FmxGraphModel%3E&lt;/span&gt;&lt;span style=&quot;color: rgba(0 , 0 , 0 , 0) ; font-family: monospace ; font-size: 0px ; background-color: rgb(248 , 249 , 250)&quot;&gt;%3CmxGraphModel%3E%3Croot%3E%3CmxCell%20id%3D%220%22%2F%3E%3CmxCell%20id%3D%221%22%20parent%3D%220%22%2F%3E%3CmxCell%20id%3D%222%22%20value%3D%22%22%20style%3D%22html%3D1%3Bshadow%3D0%3Bdashed%3D0%3Balign%3Dcenter%3BverticalAlign%3Dmiddle%3Bshape%3Dmxgraph.arrows2.jumpInArrow%3Bdy%3D15%3Bdx%3D38%3BarrowHead%3D48%3Brotation%3D5%3B%22%20vertex%3D%221%22%20parent%3D%221%22%3E%3CmxGeometry%20x%3D%22560%22%20y%3D%22354%22%20width%3D%22200%22%20height%3D%22135%22%20as%3D%22geometry%22%2F%3E%3C%2FmxCell%3E%3C%2Froot%3E%3C%2FmxGraphModel%3E&lt;/span&gt;" style="html=1;shadow=0;dashed=0;align=center;verticalAlign=middle;shape=mxgraph.arrows2.jumpInArrow;dy=15;dx=38;arrowHead=48;rotation=0;direction=north;" vertex="1" parent="1">
          <mxGeometry x="248.5" y="819.5" width="135" height="200" as="geometry"/>
        </mxCell>
        <mxCell id="p-h15RsdW0nm763Yp3lO-37" value="" style="rounded=0;whiteSpace=wrap;html=1;" vertex="1" parent="1">
          <mxGeometry x="220" y="750" width="120" height="60" as="geometry"/>
        </mxCell>
        <mxCell id="p-h15RsdW0nm763Yp3lO-39" value="" style="rounded=0;whiteSpace=wrap;html=1;" vertex="1" parent="1">
          <mxGeometry x="780" y="884.5" width="120" height="60" as="geometry"/>
        </mxCell>
        <mxCell id="p-h15RsdW0nm763Yp3lO-40" value="&lt;font color=&quot;#ba0000&quot; face=&quot;monospace&quot;&gt;&lt;span style=&quot;font-size: 0px ; background-color: rgb(248 , 249 , 250)&quot;&gt;c&lt;/span&gt;&lt;/font&gt;&lt;span style=&quot;color: rgba(0 , 0 , 0 , 0) ; font-family: monospace ; font-size: 0px ; background-color: rgb(248 , 249 , 250)&quot;&gt;%3CmxGraphModel%3E%3Croot%3E%3CmxCell%20id%3D%220%22%2F%3E%3CmxCell%20id%3D%221%22%20parent%3D%220%22%2F%3E%3CmxCell%20id%3D%222%22%20value%3D%22%22%20style%3D%22html%3D1%3Bshadow%3D0%3Bdashed%3D0%3Balign%3Dcenter%3BverticalAlign%3Dmiddle%3Bshape%3Dmxgraph.arrows2.jumpInArrow%3Bdy%3D15%3Bdx%3D38%3BarrowHead%3D48%3Brotation%3D5%3B%22%20vertex%3D%221%22%20parent%3D%221%22%3E%3CmxGeometry%20x%3D%22560%22%20y%3D%22354%22%20width%3D%22200%22%20height%3D%22135%22%20as%3D%22geometry%22%2F%3E%3C%2FmxCell%3E%3C%2Froot%3E%3C%2FmxGraphModel%3E&lt;/span&gt;&lt;span style=&quot;color: rgba(0 , 0 , 0 , 0) ; font-family: monospace ; font-size: 0px ; background-color: rgb(248 , 249 , 250)&quot;&gt;%3CmxGraphModel%3E%3Croot%3E%3CmxCell%20id%3D%220%22%2F%3E%3CmxCell%20id%3D%221%22%20parent%3D%220%22%2F%3E%3CmxCell%20id%3D%222%22%20value%3D%22%22%20style%3D%22html%3D1%3Bshadow%3D0%3Bdashed%3D0%3Balign%3Dcenter%3BverticalAlign%3Dmiddle%3Bshape%3Dmxgraph.arrows2.jumpInArrow%3Bdy%3D15%3Bdx%3D38%3BarrowHead%3D48%3Brotation%3D5%3B%22%20vertex%3D%221%22%20parent%3D%221%22%3E%3CmxGeometry%20x%3D%22560%22%20y%3D%22354%22%20width%3D%22200%22%20height%3D%22135%22%20as%3D%22geometry%22%2F%3E%3C%2FmxCell%3E%3C%2Froot%3E%3C%2FmxGraphModel%3E&lt;/span&gt;&lt;span style=&quot;color: rgba(0 , 0 , 0 , 0) ; font-family: monospace ; font-size: 0px ; background-color: rgb(248 , 249 , 250)&quot;&gt;%3CmxGraphModel%3E%3Croot%3E%3CmxCell%20id%3D%220%22%2F%3E%3CmxCell%20id%3D%221%22%20parent%3D%220%22%2F%3E%3CmxCell%20id%3D%222%22%20value%3D%22%22%20style%3D%22html%3D1%3Bshadow%3D0%3Bdashed%3D0%3Balign%3Dcenter%3BverticalAlign%3Dmiddle%3Bshape%3Dmxgraph.arrows2.jumpInArrow%3Bdy%3D15%3Bdx%3D38%3BarrowHead%3D48%3Brotation%3D5%3B%22%20vertex%3D%221%22%20parent%3D%221%22%3E%3CmxGeometry%20x%3D%22560%22%20y%3D%22354%22%20width%3D%22200%22%20height%3D%22135%22%20as%3D%22geometry%22%2F%3E%3C%2FmxCell%3E%3C%2Froot%3E%3C%2FmxGraphModel%3E&lt;/span&gt;&lt;span style=&quot;color: rgba(0 , 0 , 0 , 0) ; font-family: monospace ; font-size: 0px ; background-color: rgb(248 , 249 , 250)&quot;&gt;%3CmxGraphModel%3E%3Croot%3E%3CmxCell%20id%3D%220%22%2F%3E%3CmxCell%20id%3D%221%22%20parent%3D%220%22%2F%3E%3CmxCell%20id%3D%222%22%20value%3D%22%22%20style%3D%22html%3D1%3Bshadow%3D0%3Bdashed%3D0%3Balign%3Dcenter%3BverticalAlign%3Dmiddle%3Bshape%3Dmxgraph.arrows2.jumpInArrow%3Bdy%3D15%3Bdx%3D38%3BarrowHead%3D48%3Brotation%3D5%3B%22%20vertex%3D%221%22%20parent%3D%221%22%3E%3CmxGeometry%20x%3D%22560%22%20y%3D%22354%22%20width%3D%22200%22%20height%3D%22135%22%20as%3D%22geometry%22%2F%3E%3C%2FmxCell%3E%3C%2Froot%3E%3C%2FmxGraphModel%3E&lt;/span&gt;&lt;span style=&quot;color: rgba(0 , 0 , 0 , 0) ; font-family: monospace ; font-size: 0px ; background-color: rgb(248 , 249 , 250)&quot;&gt;%3CmxGraphModel%3E%3Croot%3E%3CmxCell%20id%3D%220%22%2F%3E%3CmxCell%20id%3D%221%22%20parent%3D%220%22%2F%3E%3CmxCell%20id%3D%222%22%20value%3D%22%22%20style%3D%22html%3D1%3Bshadow%3D0%3Bdashed%3D0%3Balign%3Dcenter%3BverticalAlign%3Dmiddle%3Bshape%3Dmxgraph.arrows2.jumpInArrow%3Bdy%3D15%3Bdx%3D38%3BarrowHead%3D48%3Brotation%3D5%3B%22%20vertex%3D%221%22%20parent%3D%221%22%3E%3CmxGeometry%20x%3D%22560%22%20y%3D%22354%22%20width%3D%22200%22%20height%3D%22135%22%20as%3D%22geometry%22%2F%3E%3C%2FmxCell%3E%3C%2Froot%3E%3C%2FmxGraphModel%3E&lt;/span&gt;&lt;span style=&quot;color: rgba(0 , 0 , 0 , 0) ; font-family: monospace ; font-size: 0px ; background-color: rgb(248 , 249 , 250)&quot;&gt;%3CmxGraphModel%3E%3Croot%3E%3CmxCell%20id%3D%220%22%2F%3E%3CmxCell%20id%3D%221%22%20parent%3D%220%22%2F%3E%3CmxCell%20id%3D%222%22%20value%3D%22%22%20style%3D%22html%3D1%3Bshadow%3D0%3Bdashed%3D0%3Balign%3Dcenter%3BverticalAlign%3Dmiddle%3Bshape%3Dmxgraph.arrows2.jumpInArrow%3Bdy%3D15%3Bdx%3D38%3BarrowHead%3D48%3Brotation%3D5%3B%22%20vertex%3D%221%22%20parent%3D%221%22%3E%3CmxGeometry%20x%3D%22560%22%20y%3D%22354%22%20width%3D%22200%22%20height%3D%22135%22%20as%3D%22geometry%22%2F%3E%3C%2FmxCell%3E%3C%2Froot%3E%3C%2FmxGraphModel%3E&lt;/span&gt;&lt;span style=&quot;color: rgba(0 , 0 , 0 , 0) ; font-family: monospace ; font-size: 0px ; background-color: rgb(248 , 249 , 250)&quot;&gt;%3CmxGraphModel%3E%3Croot%3E%3CmxCell%20id%3D%220%22%2F%3E%3CmxCell%20id%3D%221%22%20parent%3D%220%22%2F%3E%3CmxCell%20id%3D%222%22%20value%3D%22%22%20style%3D%22html%3D1%3Bshadow%3D0%3Bdashed%3D0%3Balign%3Dcenter%3BverticalAlign%3Dmiddle%3Bshape%3Dmxgraph.arrows2.jumpInArrow%3Bdy%3D15%3Bdx%3D38%3BarrowHead%3D48%3Brotation%3D5%3B%22%20vertex%3D%221%22%20parent%3D%221%22%3E%3CmxGeometry%20x%3D%22560%22%20y%3D%22354%22%20width%3D%22200%22%20height%3D%22135%22%20as%3D%22geometry%22%2F%3E%3C%2FmxCell%3E%3C%2Froot%3E%3C%2FmxGraphModel%3E&lt;/span&gt;" style="html=1;shadow=0;dashed=0;align=center;verticalAlign=middle;shape=mxgraph.arrows2.jumpInArrow;dy=15;dx=38;arrowHead=48;rotation=5;" vertex="1" parent="1">
          <mxGeometry x="575" y="1001.5" width="200" height="135" as="geometry"/>
        </mxCell>
        <mxCell id="p-h15RsdW0nm763Yp3lO-45" value="" style="rounded=0;whiteSpace=wrap;html=1;" vertex="1" parent="1">
          <mxGeometry x="780" y="1011.5" width="120" height="60" as="geometry"/>
        </mxCell>
        <mxCell id="p-h15RsdW0nm763Yp3lO-46" value="" style="html=1;shadow=0;dashed=0;align=center;verticalAlign=middle;shape=mxgraph.arrows2.jumpInArrow;dy=15;dx=38;arrowHead=55;direction=north;" vertex="1" parent="1">
          <mxGeometry x="150" y="900" width="238" height="240" as="geometry"/>
        </mxCell>
        <mxCell id="p-h15RsdW0nm763Yp3lO-47" value="" style="rounded=0;whiteSpace=wrap;html=1;" vertex="1" parent="1">
          <mxGeometry x="115" y="825" width="120" height="60" as="geometry"/>
        </mxCell>
        <mxCell id="p-h15RsdW0nm763Yp3lO-48" value="所有题型" style="text;html=1;align=center;verticalAlign=middle;resizable=0;points=[];;autosize=1;" vertex="1" parent="1">
          <mxGeometry x="820" y="904.5" width="60" height="20" as="geometry"/>
        </mxCell>
        <mxCell id="p-h15RsdW0nm763Yp3lO-49" value="所有题型" style="text;html=1;align=center;verticalAlign=middle;resizable=0;points=[];;autosize=1;" vertex="1" parent="1">
          <mxGeometry x="240" y="770" width="60" height="20" as="geometry"/>
        </mxCell>
        <mxCell id="p-h15RsdW0nm763Yp3lO-50" value="易错题型" style="text;html=1;align=center;verticalAlign=middle;resizable=0;points=[];;autosize=1;" vertex="1" parent="1">
          <mxGeometry x="145" y="843" width="60" height="20" as="geometry"/>
        </mxCell>
        <mxCell id="p-h15RsdW0nm763Yp3lO-51" value="易错题型" style="text;html=1;align=center;verticalAlign=middle;resizable=0;points=[];;autosize=1;" vertex="1" parent="1">
          <mxGeometry x="820" y="1031.5" width="60" height="20" as="geometry"/>
        </mxCell>
        <mxCell id="p-h15RsdW0nm763Yp3lO-57" value="" style="endArrow=none;html=1;entryX=0.5;entryY=0;entryDx=0;entryDy=0;" edge="1" parent="1">
          <mxGeometry width="50" height="50" relative="1" as="geometry">
            <mxPoint x="691" y="760" as="sourcePoint"/>
            <mxPoint x="831" y="884.5" as="targetPoint"/>
            <Array as="points">
              <mxPoint x="751" y="810"/>
            </Array>
          </mxGeometry>
        </mxCell>
        <mxCell id="p-h15RsdW0nm763Yp3lO-58" value="" style="endArrow=none;html=1;" edge="1" parent="1">
          <mxGeometry width="50" height="50" relative="1" as="geometry">
            <mxPoint x="830" y="760" as="sourcePoint"/>
            <mxPoint x="830" y="880" as="targetPoint"/>
            <Array as="points"/>
          </mxGeometry>
        </mxCell>
        <mxCell id="p-h15RsdW0nm763Yp3lO-59" value="" style="endArrow=none;html=1;" edge="1" parent="1">
          <mxGeometry width="50" height="50" relative="1" as="geometry">
            <mxPoint x="960" y="760" as="sourcePoint"/>
            <mxPoint x="830" y="880" as="targetPoint"/>
            <Array as="points"/>
          </mxGeometry>
        </mxCell>
        <mxCell id="p-h15RsdW0nm763Yp3lO-60" value="应用题" style="text;html=1;align=center;verticalAlign=middle;resizable=0;points=[];;autosize=1;" vertex="1" parent="1">
          <mxGeometry x="670" y="740" width="50" height="20" as="geometry"/>
        </mxCell>
        <mxCell id="p-h15RsdW0nm763Yp3lO-61" value="计算题" style="text;html=1;align=center;verticalAlign=middle;resizable=0;points=[];;autosize=1;" vertex="1" parent="1">
          <mxGeometry x="817" y="740" width="50" height="20" as="geometry"/>
        </mxCell>
        <mxCell id="p-h15RsdW0nm763Yp3lO-62" value="填空题" style="text;html=1;align=center;verticalAlign=middle;resizable=0;points=[];;autosize=1;" vertex="1" parent="1">
          <mxGeometry x="930" y="740" width="50" height="20" as="geometry"/>
        </mxCell>
        <mxCell id="p-h15RsdW0nm763Yp3lO-63" value="" style="endArrow=none;html=1;" edge="1" parent="1">
          <mxGeometry width="50" height="50" relative="1" as="geometry">
            <mxPoint x="1030" y="914.5" as="sourcePoint"/>
            <mxPoint x="900" y="1034.5" as="targetPoint"/>
            <Array as="points"/>
          </mxGeometry>
        </mxCell>
        <mxCell id="p-h15RsdW0nm763Yp3lO-66" value="" style="endArrow=none;html=1;" edge="1" parent="1">
          <mxGeometry width="50" height="50" relative="1" as="geometry">
            <mxPoint x="1050" y="1030" as="sourcePoint"/>
            <mxPoint x="900" y="1030" as="targetPoint"/>
            <Array as="points"/>
          </mxGeometry>
        </mxCell>
        <mxCell id="p-h15RsdW0nm763Yp3lO-67" value="" style="endArrow=none;html=1;" edge="1" parent="1">
          <mxGeometry width="50" height="50" relative="1" as="geometry">
            <mxPoint x="1050" y="1120" as="sourcePoint"/>
            <mxPoint x="900" y="1030" as="targetPoint"/>
            <Array as="points"/>
          </mxGeometry>
        </mxCell>
        <mxCell id="p-h15RsdW0nm763Yp3lO-68" value="比大小" style="text;html=1;align=center;verticalAlign=middle;resizable=0;points=[];;autosize=1;" vertex="1" parent="1">
          <mxGeometry x="1029" y="904" width="50" height="20" as="geometry"/>
        </mxCell>
        <mxCell id="p-h15RsdW0nm763Yp3lO-69" value="计算题" style="text;html=1;align=center;verticalAlign=middle;resizable=0;points=[];;autosize=1;" vertex="1" parent="1">
          <mxGeometry x="1056" y="1021" width="50" height="20" as="geometry"/>
        </mxCell>
        <mxCell id="p-h15RsdW0nm763Yp3lO-70" value="应用题" style="text;html=1;align=center;verticalAlign=middle;resizable=0;points=[];;autosize=1;" vertex="1" parent="1">
          <mxGeometry x="1054" y="1115" width="50" height="20" as="geometry"/>
        </mxCell>
      </root>
    </mxGraphModel>
  </diagram>
</mxfile>
